<!--
  ~ Copyright (c) 2019. Anarchybre
  -->

<svg version="1.1"
	 xmlns="http://www.w3.org/2000/svg"
	 x="0px"
	 y="0px"
	 width="240px"
	 height="240px"
	 viewBox="0 0 240 240">

	<!-- Gradients -->
	<defs>
		<linearGradient id="grad1" x1="0%" y1="0%" x2="0%" y2="100%">
			<stop id="svg-color-2" offset="0%" style="stop-color:rgb(0,0,0);" />
			<stop id="svg-color-1" offset="100%" style="stop-color:rgb(0,0,0);" />
		</linearGradient>
		<linearGradient id="grad2" x1="0%" y1="0%" x2="0%" y2="100%">
			<stop id="svg-color-3" offset="0%" style="stop-color:rgb(0,0,0);" />
			<stop id="svg-color-4" offset="100%" style="stop-color:rgb(0,0,0);" />
		</linearGradient>
	</defs>

	<!-- Logo -->
	<g id="anarchybre-svg-group">
		<path
				id="anarchybre-logo"
				stroke-width="1"
				fill="url(#grad1)"
				d="M175.078,155.13c-3.934-9.356-7.962-18.67-11.915-28.017
				c-10.896-25.762-21.928-51.465-32.807-77.235c-0.513-1.214-0.96-2.503-2.234-3.2h-16.379c-0.915,0.611-1.928,2.154-2.367,3.2
				c-5.629,13.453-11.05,26.081-16.749,39.504c-9.29,21.885-18.606,43.759-27.908,65.639c-0.805,1.895-1.478,3.821-1.35,5.929h22.473
				c0.666-0.527,0.76-1.193,0.703-2.026c-0.575-8.456,2.132-16.026,6.672-22.953c2.193-3.347,5.671-5.026,9.696-5.275
				c2.596-0.16,5.173,0.05,7.765,0.465c4.18,0.67,8.356,1.221,12.665,0.759c4.023-0.432,7.975-1.442,12.084-1.303
				c4.959,0.17,8.758,2.2,11.551,6.249c1.715,2.484,2.762,5.286,3.764,8.089c1.612,4.505,2.811,9.11,2.225,13.966
				c-0.123,1.019,0.337,1.497,1.025,1.998c7.047,0,22.483-0.004,22.483-0.004C176.475,158.634,175.818,156.891,175.078,155.13
				 M138.327,113.982c-4.621-1.899-9.259-3.758-13.89-5.632c-0.176-0.072-0.356-0.139-0.52-0.235c-0.122-0.07-0.242-0.121-0.362-0.184
				v-7.293c3.018,1.239,5.825,2.392,9.035,3.711c-4.012-9.877-7.839-19.299-11.815-29.087c-4.169,9.974-8.174,19.557-12.373,29.603
				c3.393-1.363,6.238-2.505,9.471-3.803v6.61c-0.336,0.132-0.675,0.282-1.021,0.459c-4.533,2.329-9.25,4.301-13.902,6.395
				c-0.602,0.27-1.281,0.767-1.938,0.146c-0.684-0.644-0.13-1.338,0.114-1.928c5.492-13.29,11.009-26.571,16.526-39.851
				c0.584-1.404,1.182-2.802,1.804-4.188c0.227-0.507,0.411-1.154,1.094-1.195c0.818-0.05,0.988,0.692,1.226,1.247
				c2.28,5.352,4.568,10.701,6.803,16.072c3.692,8.874,7.347,17.764,11.013,26.649c0.215,0.522,0.391,1.059,0.575,1.562
				C140.033,114.395,139.349,114.402,138.327,113.982"/>

		<path
				id="anarchybre-control-left"
				class="anarchybre-logo-top"
				fill="#222222"
				stroke="#FFF"
				stroke-width="0.5"
				d="M106.221,143.241c0,2.437-2.604,4.412-5.818,4.412c-3.213,0-5.818-1.976-5.818-4.412
				s2.605-4.412,5.818-4.412C103.617,138.829,106.221,140.805,106.221,143.241"/>
		<path
				id="anarchybre-control-right-top"
				class="anarchybre-logo-top"
				fill="#222222"
				stroke="#FFF"
				stroke-width="0.5"
				d="M137.271,138.666c0,1.185-1.266,2.145-2.827,2.145s-2.827-0.96-2.827-2.145
				c0-1.184,1.266-2.144,2.827-2.144S137.271,137.482,137.271,138.666"/>
		<path
				id="anarchybre-control-right-bottom"
				class="anarchybre-logo-top"
				fill="#222222"
				stroke="#FFF"
				stroke-width="0.5"
				d="M137.271,147.756c0,1.184-1.266,2.145-2.827,2.145s-2.827-0.961-2.827-2.145
				c0-1.185,1.266-2.145,2.827-2.145S137.271,146.571,137.271,147.756"/>
		<path
				id="anarchybre-control-right-right"
				class="anarchybre-logo-top"
				fill="#222222"
				stroke="#FFF"
				stroke-width="0.5"
				d="M143.737,143.274c0,1.184-1.267,2.144-2.827,2.144c-1.562,0-2.827-0.96-2.827-2.144
				c0-1.185,1.266-2.145,2.827-2.145C142.471,141.13,143.737,142.09,143.737,143.274"/>
		<path
				id="anarchybre-control-right-left"
				class="anarchybre-logo-top"
				fill="#222222"
				stroke="#FFF"
				stroke-width="0.5"
				d="M130.822,143.274c0,1.184-1.266,2.144-2.827,2.144s-2.827-0.96-2.827-2.144
				c0-1.185,1.266-2.145,2.827-2.145S130.822,142.09,130.822,143.274"/>


		<!-- Letters -->
		<path
				id="anarchybre-letter-a1"
				class="anarchybre-logo-bottom"
				fill="url(#grad2)"
				d="M61.852,193.005h-4.371l-1.903-4.114h-9.976l-1.927,4.114h-4.372l9.719-20.569h3.111L61.852,193.005z
	 			M54.01,185.574l-3.419-7.404l-3.471,7.404H54.01z"/>
		<polygon
				id="anarchybre-letter-n"
				class="anarchybre-logo-bottom"
				fill="url(#grad2)"
				points="76.75,193.005 73.709,193.005 66.491,181.786 66.491,193.005 63.451,193.005 63.451,177.006
				66.931,177.006 73.709,187.445 73.709,177.006 76.75,177.006 "/>
		<path
				id="anarchybre-letter-a2"
				class="anarchybre-logo-bottom"
				fill="url(#grad2)"
				d="M95.888,193.005h-3.4l-1.48-3.2h-7.759l-1.5,3.2H78.35l7.559-15.999h2.42L95.888,193.005z M89.788,187.225
				l-2.66-5.759l-2.699,5.759H89.788z"/>
		<path
				id="anarchybre-letter-r1"
				class="anarchybre-logo-bottom"
				fill="url(#grad2)"
				d="M109.506,193.005h-3.413l-1.138-3.64c-0.119-0.4-0.269-0.768-0.448-1.101
				c-0.18-0.333-0.396-0.62-0.648-0.859c-0.254-0.24-0.556-0.427-0.909-0.561c-0.352-0.133-0.768-0.199-1.246-0.199h-1.157v6.359
				h-3.06v-15.979l6.308-0.021c0.679,0,1.311,0.117,1.897,0.351c0.585,0.233,1.09,0.557,1.517,0.97
				c0.425,0.414,0.757,0.899,0.998,1.46c0.238,0.562,0.359,1.167,0.359,1.819c0,0.468-0.073,0.92-0.219,1.36s-0.351,0.847-0.616,1.22
				c-0.265,0.373-0.579,0.704-0.943,0.989c-0.364,0.288-0.765,0.505-1.202,0.65c0.503,0.187,0.914,0.457,1.232,0.81
				c0.318,0.354,0.57,0.777,0.755,1.271c0.093,0.227,0.179,0.453,0.258,0.68c0.08,0.227,0.163,0.463,0.249,0.71
				c0.086,0.247,0.179,0.514,0.278,0.8c0.099,0.287,0.209,0.604,0.328,0.95c0.146,0.439,0.282,0.816,0.41,1.13
				C109.222,192.488,109.359,192.765,109.506,193.005 M105.466,181.826c0-0.373-0.07-0.714-0.209-1.021
				c-0.141-0.306-0.331-0.572-0.571-0.8c-0.24-0.226-0.523-0.402-0.85-0.53c-0.326-0.126-0.676-0.189-1.049-0.189h-2.24v4.979h2.24
				c0.373,0,0.723-0.057,1.049-0.169c0.327-0.114,0.61-0.277,0.85-0.491c0.24-0.213,0.43-0.47,0.571-0.77
				C105.396,182.535,105.466,182.199,105.466,181.826"/>
		<path
				id="anarchybre-letter-c"
				class="anarchybre-logo-bottom"
				fill="url(#grad2)"
				d="M126.043,190.125c-0.8,0.973-1.77,1.746-2.907,2.319
				c-1.141,0.573-2.399,0.86-3.773,0.86c-1.184,0-2.299-0.218-3.339-0.65c-1.039-0.433-1.944-1.023-2.713-1.77
				c-0.769-0.747-1.376-1.623-1.82-2.63c-0.443-1.006-0.666-2.09-0.666-3.25c0-1.159,0.223-2.242,0.666-3.249
				c0.444-1.007,1.051-1.886,1.82-2.64c0.769-0.753,1.674-1.343,2.713-1.77c1.04-0.427,2.155-0.641,3.339-0.641
				c1.374,0,2.632,0.287,3.773,0.86c1.138,0.573,2.089,1.32,2.849,2.24l-2.139,2.199c-0.496-0.706-1.132-1.277-1.913-1.71
				c-0.778-0.434-1.637-0.649-2.57-0.649c-0.746,0-1.447,0.143-2.109,0.43c-0.659,0.286-1.236,0.673-1.73,1.16
				c-0.492,0.486-0.882,1.053-1.169,1.699c-0.287,0.647-0.43,1.337-0.43,2.069c0,0.721,0.143,1.404,0.43,2.05
				c0.287,0.647,0.677,1.214,1.169,1.7c0.494,0.487,1.071,0.873,1.73,1.16c0.662,0.286,1.363,0.43,2.109,0.43
				c0.989,0,1.86-0.224,2.623-0.67c0.76-0.446,1.392-1.036,1.897-1.77L126.043,190.125z"/>
		<polygon
				id="anarchybre-letter-h"
				class="anarchybre-logo-bottom"
				fill="url(#grad2)"
				points="140.161,193.005 137.062,193.005 137.062,185.925 130.763,185.925
				130.763,193.005 127.663,193.005 127.663,177.026 130.763,177.026 130.763,183.365 137.062,183.365 137.062,177.026
				140.161,177.026 	"/>
		<polygon
				id="anarchybre-letter-y"
				class="anarchybre-logo-bottom"
				fill="url(#grad2)"
				points="157.698,177.026 151.179,186.466 151.179,193.024 148.039,193.024
				148.039,186.425 141.861,177.026 145.46,177.026 149.62,183.745 153.958,177.026 	"/>
		<path
				id="anarchybre-letter-b"
				class="anarchybre-logo-bottom"
				fill="url(#grad2)"
				d="M171.397,188.425c0,0.667-0.138,1.284-0.409,1.851
				c-0.274,0.566-0.639,1.053-1.091,1.459c-0.454,0.406-0.977,0.724-1.57,0.95s-1.217,0.34-1.869,0.34l-6.46-0.02v-15.999h5.76
				c0.692,0,1.336,0.104,1.93,0.311c0.594,0.207,1.109,0.507,1.551,0.899c0.439,0.394,0.781,0.874,1.029,1.44
				c0.247,0.566,0.369,1.203,0.369,1.91c0,0.6-0.133,1.179-0.398,1.739c-0.268,0.56-0.621,1.033-1.062,1.42
				c0.348,0.174,0.657,0.393,0.93,0.659c0.274,0.268,0.508,0.563,0.701,0.891c0.193,0.326,0.339,0.674,0.439,1.04
				C171.347,187.682,171.397,188.052,171.397,188.425 M167.577,181.626c0-0.387-0.072-0.72-0.22-1
				c-0.146-0.279-0.343-0.513-0.589-0.699c-0.248-0.188-0.529-0.328-0.852-0.421c-0.319-0.093-0.652-0.14-0.999-0.14h-1.82v4.399
				c0.334,0.014,0.635,0.02,0.901,0.02h0.919c0.347,0,0.68-0.04,0.999-0.12c0.322-0.079,0.604-0.206,0.852-0.379
				c0.246-0.174,0.443-0.397,0.589-0.671C167.505,182.343,167.577,182.013,167.577,181.626 M168.177,188.245
				c0-0.333-0.063-0.64-0.188-0.92c-0.128-0.28-0.302-0.518-0.522-0.71c-0.22-0.193-0.473-0.343-0.759-0.45
				c-0.287-0.107-0.597-0.16-0.93-0.16c-0.454-0.013-0.901-0.017-1.34-0.01c-0.439,0.007-0.888,0.01-1.341,0.01v4.42h2.32
				c0.334,0,0.667-0.04,1-0.12c0.333-0.081,0.629-0.21,0.89-0.39s0.47-0.406,0.629-0.68
				C168.098,188.962,168.177,188.632,168.177,188.245"/>
		<path
				id="anarchybre-letter-r2"
				class="anarchybre-logo-bottom"
				fill="url(#grad2)"
				d="M186.217,193.005h-3.415l-1.136-3.64c-0.121-0.4-0.27-0.768-0.449-1.101
				s-0.395-0.62-0.648-0.859c-0.252-0.24-0.555-0.427-0.908-0.561c-0.352-0.133-0.767-0.199-1.246-0.199h-1.157v6.359h-3.06v-15.979
				l6.308-0.021c0.679,0,1.312,0.117,1.897,0.351c0.584,0.233,1.091,0.557,1.516,0.97c0.426,0.414,0.76,0.899,0.998,1.46
				c0.24,0.562,0.359,1.167,0.359,1.819c0,0.468-0.072,0.92-0.218,1.36c-0.146,0.44-0.351,0.847-0.616,1.22
				c-0.265,0.373-0.578,0.704-0.943,0.989c-0.364,0.288-0.765,0.505-1.201,0.65c0.502,0.187,0.913,0.457,1.23,0.81
				c0.319,0.354,0.57,0.777,0.757,1.271c0.091,0.227,0.178,0.453,0.257,0.68s0.163,0.463,0.248,0.71c0.087,0.247,0.18,0.514,0.279,0.8
				c0.099,0.287,0.209,0.604,0.328,0.95c0.146,0.439,0.282,0.816,0.409,1.13S186.069,192.765,186.217,193.005 M182.176,181.826
				c0-0.373-0.069-0.714-0.209-1.021c-0.142-0.306-0.33-0.572-0.57-0.8c-0.24-0.226-0.524-0.402-0.85-0.53
				c-0.327-0.126-0.678-0.189-1.051-0.189h-2.239v4.979h2.239c0.373,0,0.724-0.057,1.051-0.169c0.325-0.114,0.609-0.277,0.85-0.491
				c0.24-0.213,0.429-0.47,0.57-0.77C182.106,182.535,182.176,182.199,182.176,181.826"/>
		<path
				id="anarchybre-letter-3"
				class="anarchybre-logo-bottom"
				fill="url(#grad2)"
				d="M200.05,188.203c0,0.834-0.157,1.571-0.467,2.212
				c-0.312,0.642-0.728,1.178-1.249,1.607c-0.524,0.431-1.135,0.754-1.836,0.972c-0.701,0.219-1.442,0.328-2.222,0.328
				c-1.362,0-2.579-0.262-3.65-0.784s-2.036-1.313-2.896-2.371l2.123-2.143c0.237,0.331,0.515,0.642,0.832,0.934
				c0.318,0.29,0.662,0.545,1.032,0.763c0.371,0.219,0.765,0.391,1.18,0.517c0.417,0.125,0.837,0.188,1.26,0.188
				c0.358,0,0.698-0.05,1.021-0.149c0.324-0.099,0.609-0.245,0.854-0.437s0.443-0.43,0.595-0.714s0.229-0.618,0.229-1.002
				c0-0.489-0.14-0.876-0.417-1.16s-0.625-0.499-1.042-0.645c-0.417-0.146-0.86-0.235-1.328-0.269c-0.47-0.032-0.89-0.05-1.26-0.05
				v-2.222c0.356,0,0.753-0.021,1.189-0.06c0.436-0.039,0.844-0.129,1.221-0.268c0.376-0.14,0.694-0.347,0.951-0.625
				c0.259-0.277,0.388-0.648,0.388-1.11c0-0.345-0.066-0.642-0.198-0.894c-0.132-0.251-0.308-0.459-0.525-0.625
				c-0.219-0.165-0.47-0.287-0.755-0.366c-0.284-0.08-0.585-0.119-0.902-0.119c-1.613,0-2.877,0.674-3.789,2.022l-2.143-2.122
				c0.794-0.952,1.649-1.65,2.568-2.093c0.919-0.443,2.001-0.665,3.244-0.665c0.661,0,1.33,0.103,2.004,0.308s1.286,0.5,1.835,0.883
				c0.549,0.384,0.995,0.863,1.339,1.438c0.345,0.575,0.517,1.227,0.517,1.954c0,0.369-0.063,0.725-0.189,1.062
				c-0.125,0.337-0.291,0.647-0.496,0.932c-0.203,0.285-0.449,0.542-0.732,0.774c-0.285,0.231-0.586,0.427-0.904,0.585
				c0.358,0.132,0.694,0.312,1.013,0.536c0.317,0.225,0.595,0.485,0.834,0.783c0.236,0.298,0.426,0.622,0.563,0.972
				C199.979,187.433,200.05,187.807,200.05,188.203"/>


		<path
				id="anarchybre-light-left"
				class="anarchybre-logo-bottom"
				fill="url(#grad2)"
				d="M17.145,189.481v-5.289c-2.836,0.738-8.691,2.068-8.729,1.98
				c3.966-2.203,7.932-4.406,12.196-6.775v5.396c3.426-0.895,6.571-1.716,9.715-2.536c0.039,0.087-5.967,3.342-8.98,4.936
				C20.036,187.885,17.271,189.481,17.145,189.481"/>
		<path
				id="anarchybre-light-right"
				class="anarchybre-logo-bottom"
				fill="url(#grad2)"
				d="M222.855,189.481v-5.289c2.837,0.738,8.69,2.068,8.729,1.98
				c-3.966-2.203-7.933-4.406-12.196-6.775v5.396c-3.427-0.895-6.57-1.716-9.715-2.536c-0.039,0.087,5.967,3.342,8.979,4.936
				C219.965,187.885,222.729,189.481,222.855,189.481"/>
	</g>
</svg>
